<?xml version="1.0" encoding="UTF-8"?>
<svg id="Layer_1" data-name="Layer 1" xmlns="http://www.w3.org/2000/svg" version="1.1" viewBox="0 0 900 839">
  <path d="M897.191,344.364c-4.283-33.795-13.217-65.602-26.553-94.535-18.126-39.323-44.315-73.705-80.065-105.112-26.68-23.441-56.382-43.86-90.801-62.425-36.905-19.906-77.327-36.71-120.142-49.945C520.964,14.211,460.759,3.682,400.688,1.051c-43.572-1.908-83.296.32-121.442,6.815-49.299,8.394-92.08,23.104-130.787,44.971-26.397,14.912-47.413,32.72-64.249,54.44C7.896,205.731,0,344.527,0,463.921c0,.04.001.08.005.119.188,2.351.391,4.7.594,7.049.43,4.973.874,10.115,1.159,15.169,2.784,49.5,10.594,96.778,23.211,140.519,7.428,25.748,18.508,59.041,38.419,88.185,18.94,27.723,43.671,50.819,75.606,70.609,42.879,26.572,90.58,42.51,145.827,48.722,78.665,8.845,158.477,3.825,235.881-12.6,33.639-7.138,69.582-15.194,104.521-25.711,41.956-12.632,82.34-35.008,120.031-66.509,57.442-48.01,99.617-107.941,125.359-178.14,41.929-95.211,26.733-205.886,26.578-206.969ZM888.891,413.765c-1.67,44.603-11.638,88.801-29.624,131.365-16.178,38.286-37.778,73.633-64.197,105.061-29.86,35.52-65.584,65.27-106.18,88.422-29.733,16.956-63.651,29.455-109.978,40.528-49.733,11.887-91.219,19.428-130.561,23.732-19.294,2.111-39.877,3.528-62.927,4.331-23.39.816-42.476.771-60.066-.137-65.095-3.363-119.775-17.541-167.166-43.341-18.439-10.039-35.656-22.37-52.636-37.694-28.97-26.147-49.726-59.014-63.454-100.478-13.307-40.193-22.074-81.634-26.058-123.172-7.641-79.659-6.708-158.251,12.09-236.453,12.811-53.296,35.122-109.55,74.216-149.078,13.696-13.847,30.676-26.141,51.911-37.582,41.229-22.214,86.851-36.471,135.601-42.377,19.904-2.412,41.114-4.05,64.842-5.009,54.356-2.195,110.408,3.624,171.359,17.794,60.783,14.131,117.656,35.352,169.038,63.072,47.892,25.838,86.785,55.602,118.902,90.992,36.306,40.005,59.846,88.935,69.966,145.43,4.087,22.809,5.696,43.938,4.922,64.595Z" style="fill: #9a9247; stroke-width: 0px;"/>
</svg>